<svg id="Layer_1" data-name="Layer 1" xmlns="http://www.w3.org/2000/svg" viewBox="0 0 595.546 548.5"><defs><style>.cls-1{fill:#fff;stroke:#000;stroke-linecap:round;stroke-linejoin:round;stroke-width:30px;}.cls-2{fill:#e06666;}</style></defs><polygon class="cls-1" points="297.198 533.5 135.427 533.5 135.427 300.876 15 300.876 297.221 15 298.324 15 580.546 300.876 460.646 300.876 460.646 533.5 298.874 533.5 297.198 533.5"/><path class="cls-2" d="M444.227,164.75v69a1,1,0,0,1-1,1H418.149a.992.992,0,0,1-1-.9c-.286-3.171-2.128-13.6-13.984-13.6-11.814,0-13.335,10.353-13.523,13.563a.994.994,0,0,1-1,.937H362.227a1,1,0,0,1-1-1v-172a1,1,0,0,1,1-1H388.65a.994.994,0,0,1,1,.937c.188,3.21,1.709,13.563,13.523,13.563,11.856,0,13.7-10.426,13.984-13.6a.993.993,0,0,1,1-.9h25.078a1,1,0,0,1,1,1v103Z" transform="translate(-2.227 -25.75)"/></svg>